<svg width="168" height="40" fill="none" xmlns="http://www.w3.org/2000/svg"><path d="M162.569 5.026v9.333h3.318v4.513h-3.318v8.41c0 .82.207 1.436.622 1.846.415.41 1.037.616 1.867.616h2.384v5.333h-4.147c-1.659 0-3.732-.308-5.184-1.641-1.452-1.334-2.073-3.077-2.073-5.539V18.77h-3.007v-4.513h3.007v-9.23h6.531zm-19.388 30.461c-3.006 0-5.599-1.025-7.361-2.872-1.866-1.846-2.696-4.307-2.696-7.18v-.717c0-3.18.83-5.744 2.488-7.795 1.659-1.949 4.044-2.974 7.154-2.974 2.8 0 5.081.82 6.636 2.461 1.659 1.744 2.384 4 2.384 6.872v3.385h-11.922v.102c.103 1.128.622 1.846 1.348 2.564.725.718 1.762 1.026 2.902 1.026 1.245 0 2.177-.103 2.903-.308.726-.205 1.763-.512 2.8-1.025l1.555 4c-.934.718-2.074 1.23-3.525 1.743-1.451.513-3.11.718-4.666.718zm-.518-16.615c-.933 0-1.659.308-2.074 1.025-.414.718-.725 1.641-.83 2.667l.105.103h5.598v-.513c0-1.128-.208-1.846-.622-2.36-.622-.717-1.244-.922-2.177-.922zm-21.358 16.615c-3.007 0-5.599-1.025-7.361-2.872-1.763-1.846-2.696-4.307-2.696-7.18v-.717c0-3.18.829-5.744 2.488-7.795 1.659-1.949 4.044-2.974 7.154-2.974 2.8 0 5.08.82 6.636 2.461 1.555 1.641 2.384 4 2.384 6.872v3.385h-11.923v.102c.104 1.128.622 1.846 1.348 2.564.725.718 1.762 1.026 2.903 1.026 1.244 0 2.177-.103 2.903-.308.726-.205 1.762-.512 2.799-1.025l1.556 4c-.934.718-2.074 1.23-3.526 1.743-1.347.513-3.006.718-4.665.718zm-.415-16.615c-.933 0-1.659.308-2.073 1.025-.415.718-.726 1.641-.83 2.667l.104.103h5.599v-.513c0-1.128-.208-1.846-.623-2.36-.622-.717-1.244-.922-2.177-.922zm-19.388 7.384l2.281-12.102h5.909l-4.769 20.82h-5.495l-3.42-11.076h-.105l-3.42 11.076h-5.496l-4.873-20.718h6.014l2.28 12.206h.104l3.318-12.206h4.147l3.525 12zm-27.475 2.872c0-.513-.311-1.025-.933-1.436-.622-.41-1.659-.82-3.214-1.128-2.385-.513-4.251-1.23-5.495-2.154-1.244-1.025-1.866-2.359-1.866-4.102 0-1.846.83-3.385 2.28-4.718 1.556-1.334 3.63-1.846 6.221-1.846 2.696 0 4.977.615 6.532 1.846 1.659 1.23 2.385 2.769 2.28 4.82v.103h-6.22c0-.82-.207-1.436-.622-1.846-.414-.41-1.14-.616-1.97-.616-.725 0-1.244.205-1.762.616-.518.41-.726.82-.726 1.435 0 .616.31 1.026.83 1.436.518.41 1.658.718 3.214 1.026 2.488.513 4.458 1.23 5.598 2.154 1.244 1.026 1.866 2.359 1.866 4.205s-.83 3.385-2.488 4.615c-1.659 1.231-3.836 1.847-6.532 1.847-2.799 0-5.08-.718-6.739-2.154-1.659-1.436-2.385-2.975-2.28-4.82v-.103h5.909c0 1.025.311 1.743.933 2.051.623.308 1.452.718 2.385.718.933 0 1.555-.205 1.97-.513.621-.308.829-.82.829-1.436zm-28.2-14.974l.207 2.872c.725-1.026 1.555-1.846 2.488-2.36 1.037-.615 2.074-.922 3.318-.922 1.97 0 3.628.717 4.769 1.948 1.14 1.231 1.762 3.385 1.762 6.257v13.025h-6.324V22.051c0-1.23-.207-1.948-.726-2.461-.518-.513-1.244-.718-2.177-.718a4.34 4.34 0 0 0-1.659.308 2.827 2.827 0 0 0-1.244.922v14.975h-6.428v-20.82h6.013v-.103zm-9.954-3.898h-6.532v-5.23h6.532v5.23zm0 24.82h-6.532v-20.82h6.532v20.82zm-20.84 0v-16.41h-3.006v-4.512h3.007V12c0-2.359.725-4.205 2.073-5.538 1.452-1.334 3.629-1.641 5.184-1.641h4.147v5.23h-2.384c-.83 0-1.452.205-1.867.616-.414.41-.622 1.025-.622 1.846v1.538h4.044v4.513h-4.044v16.308h-6.532v.205zM2.592 6.77C2.592.513 5.91 0 11.508 0v4.923c-2.592 0-3.628.41-3.628 1.949v8.102c0 1.846.103 3.795-1.452 5.026 1.555 1.23 1.452 3.077 1.452 5.026v8.102c0 1.641 1.036 1.949 3.628 1.949V40c-5.598 0-8.916-.513-8.916-6.77v-8.204c0-1.334 0-2.77-2.592-2.77V17.95c2.592 0 2.592-1.539 2.592-2.77V6.77z" fill="url(#paint0_linear_546_161)"/><defs><linearGradient id="paint0_linear_546_161" x1="-10.411" y1="-75" x2="71.619" y2="47.316" gradientUnits="userSpaceOnUse"><stop stop-color="#DF9679"/><stop offset="1" stop-color="#FFD0A0"/></linearGradient></defs></svg>