<svg width="25" height="26" viewBox="0 0 25 26" fill="none" xmlns="http://www.w3.org/2000/svg">
<g clip-path="url(#clip0_65_1410)">
<path d="M23.1494 0H1.8457C0.825195 0 0 0.837891 0 1.87383V24.1211C0 25.157 0.825195 26 1.8457 26H23.1494C24.1699 26 25 25.157 25 24.1262V1.87383C25 0.837891 24.1699 0 23.1494 0ZM7.41699 22.1559H3.70605V9.74492H7.41699V22.1559ZM5.56152 8.05391C4.37012 8.05391 3.4082 7.05352 3.4082 5.81953C3.4082 4.58555 4.37012 3.58516 5.56152 3.58516C6.74805 3.58516 7.70996 4.58555 7.70996 5.81953C7.70996 7.04844 6.74805 8.05391 5.56152 8.05391ZM21.3037 22.1559H17.5977V16.123C17.5977 14.6859 17.5732 12.8324 15.6689 12.8324C13.7402 12.8324 13.4473 14.4016 13.4473 16.0215V22.1559H9.74609V9.74492H13.3008V11.441H13.3496C13.8428 10.466 15.0537 9.43516 16.8555 9.43516C20.6104 9.43516 21.3037 12.0047 21.3037 15.3461V22.1559Z" fill="#161722"/>
</g>
<defs>
<clipPath id="clip0_65_1410">
<rect width="25" height="26" fill="white"/>
</clipPath>
</defs>
</svg>
