<svg width="50" height="50" viewBox="0 0 50 50" fill="none" xmlns="http://www.w3.org/2000/svg">
<g clip-path="url(#clip0_1_3)">
<path fill-rule="evenodd" clip-rule="evenodd" d="M25 0C38.8071 0 50 11.1929 50 25C50 38.8071 38.8071 50 25 50C11.1929 50 0 38.8071 0 25C0 11.1929 11.1929 0 25 0Z" fill="#FFD2A4"/>
<path d="M31.1172 15.3857H34.379L27.2527 23.5309L35.6365 34.6144H29.0719L23.9306 27.8921L18.0475 34.6144H14.7836L22.4058 25.9023L14.3635 15.3857H21.0943L25.7418 21.5299L31.1172 15.3857ZM29.9723 32.6618H31.7799L20.1123 17.2357H18.1728L29.9723 32.6618Z" fill="white"/>
</g>
<defs>
<clipPath id="clip0_1_3">
<rect width="50" height="50" fill="white"/>
</clipPath>
</defs>
</svg>
